<svg xmlns="http://www.w3.org/2000/svg" width="100" height="100" viewBox="0 0 100 100">
  <rect width="100" height="100" rx="20" fill="#0B0B0B"/>
  <path d="M84.00,50.00 L83.81,53.53 L83.26,56.91 L82.34,59.99 L81.06,62.63 L79.44,64.72 L77.51,66.17 L75.27,66.91 L72.75,66.91 L69.98,66.17 L67.00,64.72 L63.83,62.63 L60.51,59.99 L57.07,56.91 L53.55,53.53 L50.00,50.00 L46.45,46.47 L42.93,43.09 L39.49,40.01 L36.17,37.37 L33.00,35.28 L30.02,33.83 L27.25,33.09 L24.73,33.09 L22.49,33.83 L20.56,35.28 L18.94,37.37 L17.66,40.01 L16.74,43.09 L16.19,46.47 L16.00,50.00 L16.19,53.53 L16.74,56.91 L17.66,59.99 L18.94,62.63 L20.56,64.72 L22.49,66.17 L24.73,66.91 L27.25,66.91 L30.02,66.17 L33.00,64.72 L36.17,62.63 L39.49,59.99 L42.93,56.91 L46.45,53.53 L50.00,50.00 L53.55,46.47 L57.07,43.09 L60.51,40.01 L63.83,37.37 L67.00,35.28 L69.98,33.83 L72.75,33.09 L75.27,33.09 L77.51,33.83 L79.44,35.28 L81.06,37.37 L82.34,40.01 L83.26,43.09 L83.81,46.47 L84.00,50.00" fill="none" stroke="#D4B483" stroke-width="4" stroke-linecap="round"/>
</svg>
